<svg fill="none" height="313" viewBox="0 0 398 313" width="398" xmlns="http://www.w3.org/2000/svg"><path clip-rule="evenodd" d="m59.5 79.3c9.1-9.4 10.4-22.7 10.4-34.9 0-12.3-1.3-25.4-10.4-34.79999-5.9-6.1-14.8-9.500004-24.9-9.500004h-34.499994v88.699994h34.499994c10.1.1 19-3.3 24.9-9.5zm-43.3-64.7h18.4c5.1 0 9.5 2 12.5 5 6.3 6.3 6.4 16.6 6.4 24.8 0 8.1-.1 18.6-6.4 24.9-3 3-7.4 5-12.5 5h-18.4zm88.1 75.9c8.3 0 16.4-2.6 21.9-9.1 2.5-3 5.1-8.1 5.5-12h-15c-.6 2.4-1.8 4.1-3.1 5.5-2.3 2.3-5 3.1-9.5 3.1-4.3 0-7.4-1.9-9.6-4-3.1-3-4.9-7.8-4.8-12.8h43.6c0-1.4.1-4.4.1-4.4.2-8.1-.9-15.5-5.6-22.7-5.4-8.1-14.1-12-23.8-12-8.9 0-15.9 3.3-20.8 8.3-6.3 6.4-9.4 15.6-9.4 26 0 10.6 3.5 19.8 10 26 5.1 5 11.6 8.1 20.5 8.1zm-11.4-50.8c2.3-3 6.1-5 10.9-5 4.5 0 7.8 1.5 9.9 3.8 2.5 2.8 3.9 6.5 4 11.4h-28.2c.1-4.3 1.1-7.3 3.4-10.2zm187.5 76.6h15.9v-15.3h-15.9zm-68.3-92.5h-15.9v65.1h15.9zm-48.1 54.5c-4.5 0-7.4-.9-9.9-2.9-1.7-1.3-3-3.7-3.4-6.1h-14.7c.5 5.5 3.4 10.3 6.8 13.6 5.4 5.1 12.8 7.5 21 7.5 8.9 0 17-2.3 22.3-7.5 3.4-3.4 5.6-8 5.6-14.3 0-10.3-7.5-16.8-17.8-18.4-6.4-1-8-1.1-13.9-1.9-3.5-.5-7.5-1.9-7.5-6.5 0-3.4 2.3-5.8 5-6.9 2.4-1 4.5-1 6.8-1 3.3 0 6.6 1.1 8.5 3 1.5 1.6 2.6 3.6 2.6 6.1h14.9c0-4.8-2.3-9.6-5.8-13.4-4.8-5.1-12.6-7.6-20.4-7.6-8.1 0-15 2.4-19.8 6.5-3.9 3.4-6.6 8-6.6 14.6 0 8.3 6 15.5 14.9 17.4 5.8 1.3 12.3 1.6 18 2.5 4 .6 6.5 3.1 6.5 6.9.1 7.3-7.9 8.4-13.1 8.4zm48.1-78.199994h-15.9v15.299994h15.9zm177.7 0-93.5 161.999994v-37.6h-15.9v65.1l-70.9 122.8h8l180.3-312.4h-8zm-174.6 99.499994c0 6.1 2.9 10.8 7.9 14.3 6.8 4.8 15.1 5.4 23 5.4 14.5 0 31.4-4.6 31.4-21.8 0-6.3-2.3-11.8-7.9-15.6-6.1-4.3-14.6-4.4-21.2-4.4h-10.8c-3.3 0-7.1-.9-7.1-4.8 0-2.1 1.8-3.8 3.3-4.6 3.3 1.1 6.9 1.8 10.5 1.8 14 0 26.5-8.8 26.5-23.7 0-.9-.1-1.8-.1-2.7 0 0-.5-4.5 2.7-6.4s6.9-1.2 6.9-1.2v52.9h15.6v-26.5c0-5.5-.1-12.3 2.1-17.4 2.1-4.8 5.8-8.3 11.3-8.3 8.3 0 10.8 4.6 10.8 12.3v39.9h15.6v-43.4c0-13.5-8.1-23.3-22-23.3-7.5 0-15.3 3.1-19.1 10l-1.1-8.4h-13.1s-11.8-.4-16.1 6.6c-2.8-2.9-5.8-4.7-7.9-5.6-3.7-1.7-7.8-2.6-12.1-2.6-14.6 0-26.7 8.4-26.7 23.9 0 6.6 2.5 12 6.5 16-5.3 3.3-7.8 7.6-7.8 13.1 0 4.3 2.4 8.9 6.5 11.1-4.9 2.7-7.6 7.8-7.6 13.4zm29.1-65.7c7.1 0 11.5 5.1 11.5 12.1s-4.4 12-11.5 12-11.5-5-11.5-12 4.4-12.1 11.5-12.1zm-9.4 56h12.3c5.9 0 15.5 0 15.5 8 0 8.6-11 9-17.3 9-6.1 0-16.4-.8-16.4-9 .1-4.2 2.6-7 5.9-8zm-189.8 74.2-23.3-63.2h-21.8v88.7h15.6v-64.1l22.9 62.8h11.9l23-62.1v63.3h15.6v-88.7h-20.6zm176.1-14.8v40.4h15.5v-35.5c0-8.1 3.9-17.5 12.8-17.5 7.9 0 10 4.6 10 12.6v40.4h15.5v-43.9c0-13.5-7.3-22.8-21.2-22.8-8.8 0-15.8 3.9-19.6 10.6-3.3-6.6-9.5-10.6-18.6-10.6-8.6 0-14.9 4.3-18.5 10.3l-1.3-8.6h-13v65.1h15.5v-35.5c0-8.1 4-17.5 12.9-17.5 7.8-.2 10 4.4 10 12.5zm-47.9 24.2v-24.2c0-4.4-.2-9-1.9-13.1-3.8-9.8-13.3-13.3-24.4-13.3-14.5 0-26.2 6.5-27 21.2h15.1c.4-6 4.6-9.3 11.9-9.3 8.9 0 11 4.1 11 10.3v4l-19.1 1.4c-12.4.9-22 8-22 20.4 0 10.6 8 20.4 23.5 20.4 9.3 0 16.8-4.5 19.8-9.8.5 4.9 4.3 9.1 11 9.1 3.8 0 5.1-.6 7.8-1.8v-11.5s-1 .3-2 .3c-2.7.1-3.7-1.1-3.7-4.1zm-15.3-9.7c0 9.6-6.9 14.9-16.6 14.9-4.9 0-9.3-3.1-9.3-8.1 0-5.3 4.6-8.1 9.4-8.5l16.5-1.3zm-62.7 25.9h15.9v-65.1h-15.9zm0-73.4h15.9v-15.3h-15.9z" fill="#000" fill-rule="evenodd"/></svg>